<?xml version="1.0" encoding="utf-8"?>
<!-- Generator: Adobe Illustrator 24.1.0, SVG Export Plug-In . SVG Version: 6.00 Build 0)  -->
<svg version="1.1" id="Слой_1" xmlns="http://www.w3.org/2000/svg" xmlns:xlink="http://www.w3.org/1999/xlink" x="0px" y="0px"
	 viewBox="0 0 25 25" style="enable-background:new 0 0 25 25;" xml:space="preserve">
<style type="text/css">
	.st0{fill:#F93F20;}
	.st1{clip-path:url(#SVGID_2_);fill:#F93F20;}
</style>
<path class="st0" d="M15.3,12.4c-0.5,0.6-0.7,1.4-0.7,2.1V22l-4.2,1.6v-9.1c0-0.8-0.2-1.5-0.7-2.1L1.8,1.3h21.5L15.3,12.4z M23.7,0
	H1.4C1,0,0.6,0.2,0.4,0.6C0.3,0.9,0.3,1.3,0.5,1.7l8.2,11.5c0,0,0,0,0,0c0.3,0.4,0.5,0.9,0.5,1.4V24c0,0.3,0.1,0.5,0.3,0.7
	S9.9,25,10.2,25c0.1,0,0.3,0,0.4-0.1l4.6-1.7c0.4-0.1,0.7-0.5,0.7-1v-7.6c0-0.5,0.2-1,0.5-1.4c0,0,0,0,0,0l8.2-11.5
	c0.2-0.3,0.3-0.8,0.1-1.1C24.4,0.2,24,0,23.7,0z"/>
<g>
	<defs>
		<path id="SVGID_1_" d="M15.3,12.4c-0.5,0.6-0.7,1.4-0.7,2.1V22l-4.2,1.6v-9.1c0-0.8-0.2-1.5-0.7-2.1L1.8,1.3h21.5L15.3,12.4z
			 M23.7,0H1.4C1,0,0.6,0.2,0.4,0.6C0.3,0.9,0.3,1.3,0.5,1.7l8.2,11.5c0,0,0,0,0,0c0.3,0.4,0.5,0.9,0.5,1.4V24
			c0,0.3,0.1,0.5,0.3,0.7S9.9,25,10.2,25c0.1,0,0.3,0,0.4-0.1l4.6-1.7c0.4-0.1,0.7-0.5,0.7-1v-7.6c0-0.5,0.2-1,0.5-1.4c0,0,0,0,0,0
			l8.2-11.5c0.2-0.3,0.3-0.8,0.1-1.1C24.4,0.2,24,0,23.7,0z"/>
	</defs>
	<clipPath id="SVGID_2_">
		<use xlink:href="#SVGID_1_"  style="overflow:visible;"/>
	</clipPath>
	<path class="st1" d="M21.6,0.1l-7.9,11.2l3.3,2.3l7.9-11.2L21.6,0.1z M1.8,3.3h21.5v-4H1.8V3.3z M11.3,11.3L3.4,0.1L0.2,2.4
		l7.9,11.2L11.3,11.3z M12.4,14.6c0-1.2-0.4-2.4-1.1-3.3l-3.2,2.4c0.2,0.3,0.3,0.6,0.3,1L12.4,14.6z M12.4,23.6v-9.1h-4v9.1H12.4z
		 M13.9,20.2l-4.2,1.6l1.4,3.7l4.2-1.6L13.9,20.2z M12.6,14.6V22h4v-7.5H12.6z M13.7,11.2c-0.7,1-1.1,2.1-1.1,3.3l4,0
		c0-0.3,0.1-0.7,0.3-1L13.7,11.2z M26.4-0.3c-0.5-1-1.6-1.7-2.7-1.7l0,4c-0.4,0-0.7-0.2-0.8-0.5L26.4-0.3z M26.1,2.8
		c0.7-0.9,0.8-2.2,0.2-3.2l-3.6,1.8c-0.2-0.3-0.1-0.7,0.1-1L26.1,2.8z M18,14.3l8.2-11.5l-3.3-2.3L14.7,12L18,14.3z M18,14.3
		C18,14.3,18,14.4,18,14.3C17.9,14.4,17.9,14.4,18,14.3C17.9,14.4,17.9,14.4,18,14.3C17.9,14.4,17.9,14.4,18,14.3
		C17.9,14.4,18,14.4,18,14.3C18,14.3,18,14.3,18,14.3L14.7,12c0,0,0,0,0,0c0,0,0,0,0,0c0,0,0,0,0,0c0,0,0,0,0,0c0,0,0,0,0,0
		c0,0,0,0,0,0L18,14.3z M17.9,14.6c0-0.1,0-0.1,0.1-0.2L14.7,12c-0.6,0.7-0.8,1.6-0.9,2.6L17.9,14.6z M17.9,22.2v-7.6h-4v7.6H17.9z
		 M15.8,25.1c1.3-0.4,2.1-1.6,2.1-2.9h-4c0-0.3,0.2-0.8,0.7-0.9L15.8,25.1z M11.3,26.8l4.6-1.7l-1.4-3.7L9.9,23L11.3,26.8z M10.2,27
		c0.4,0,0.8-0.1,1.2-0.2l-1.5-3.7c0.1,0,0.2-0.1,0.4-0.1V27z M8,26.1c0.6,0.6,1.3,0.9,2.2,0.9v-4c0.3,0,0.5,0.1,0.7,0.3L8,26.1z
		 M7.1,23.9c0,0.8,0.3,1.6,0.9,2.2l2.8-2.8c0.2,0.2,0.3,0.4,0.3,0.7L7.1,23.9z M7.1,14.6V24h4v-9.4H7.1z M7.1,14.4
		c0,0.1,0.1,0.1,0.1,0.2l4,0c0-0.9-0.3-1.8-0.9-2.6L7.1,14.4z M7,14.3C7,14.3,7.1,14.3,7,14.3C7.1,14.4,7.1,14.4,7,14.3
		C7.1,14.4,7.1,14.4,7,14.3C7.1,14.4,7.1,14.4,7,14.3C7.1,14.4,7.1,14.4,7,14.3C7.1,14.4,7.1,14.3,7,14.3l3.3-2.3c0,0,0,0,0,0
		c0,0,0,0,0,0c0,0,0,0,0,0c0,0,0,0,0,0c0,0,0,0,0,0c0,0,0,0,0,0L7,14.3z M-1.1,2.8l8.2,11.5l3.3-2.3L2.1,0.5L-1.1,2.8z M-1.3-0.3
		c-0.5,1-0.4,2.3,0.2,3.2l3.2-2.3c0.2,0.3,0.2,0.7,0.1,1L-1.3-0.3z M1.4-2C0.2-2-0.8-1.4-1.3-0.3l3.6,1.8C2,1.8,1.7,2,1.4,2L1.4-2z
		 M23.7-2H1.4v4h22.3V-2z M23.2,1.3l1.6,1.2l2.2-3.2h-3.9V1.3z M1.8,1.3v-2h-3.9l2.2,3.2L1.8,1.3z M9.7,12.4l-1.6,1.2l0,0l0,0
		L9.7,12.4z M10.4,14.6h2l0,0L10.4,14.6z M10.4,23.6h-2v2.9l2.7-1L10.4,23.6z M14.6,22l0.7,1.9l1.3-0.5V22H14.6z M14.6,14.6l-2,0v0
		H14.6z M15.3,12.4l1.6,1.2l0,0l0,0L15.3,12.4z M24.6,0.6l-1.8,0.9l0,0L24.6,0.6z M24.5,1.7l-1.6-1.2l0,0L24.5,1.7z M16.3,13.2
		L14.7,12l0,0l0,0L16.3,13.2z M16.3,13.2l1.6,1.2l0,0l0,0L16.3,13.2z M15.9,14.6l-2,0v0H15.9z M15.2,23.2l-0.6-1.9l-0.1,0l-0.1,0
		L15.2,23.2z M10.6,24.9L9.9,23l0,0l0,0L10.6,24.9z M9.5,24.7l1.4-1.4v0L9.5,24.7z M9.1,24l2,0v0H9.1z M9.1,14.6h2l0,0L9.1,14.6z
		 M8.7,13.2L7,14.3l0,0l0,0L8.7,13.2z M8.7,13.2l1.6-1.1l0,0l0,0L8.7,13.2z M0.5,1.7l1.6-1.2l0,0L0.5,1.7z M0.4,0.6l1.8,0.9l0,0
		L0.4,0.6z M1.4,0l0,2h0V0z"/>
</g>
</svg>
